<?xml version="1.0" encoding="UTF-8" standalone="no"?>
<svg
   xmlns:dc="http://purl.org/dc/elements/1.1/"
   xmlns:cc="http://creativecommons.org/ns#"
   xmlns:rdf="http://www.w3.org/1999/02/22-rdf-syntax-ns#"
   xmlns:svg="http://www.w3.org/2000/svg"
   xmlns="http://www.w3.org/2000/svg"
   xmlns:sodipodi="http://sodipodi.sourceforge.net/DTD/sodipodi-0.dtd"
   xmlns:inkscape="http://www.inkscape.org/namespaces/inkscape"
   id="logo_art"
   data-name="logo art"
   viewBox="0 0 337.58911 311.0051"
   version="1.1"
   sodipodi:docname="gitlab-logo-gray-rgb.svg"
   width="337.58911"
   height="311.0051"
   inkscape:version="0.92.4 (5da689c313, 2019-01-14)">
  <metadata
     id="metadata38">
    <rdf:RDF>
      <cc:Work
         rdf:about="">
        <dc:format>image/svg+xml</dc:format>
        <dc:type
           rdf:resource="http://purl.org/dc/dcmitype/StillImage" />
      </cc:Work>
    </rdf:RDF>
  </metadata>
  <sodipodi:namedview
     pagecolor="#ffffff"
     bordercolor="#666666"
     borderopacity="1"
     objecttolerance="10"
     gridtolerance="10"
     guidetolerance="10"
     inkscape:pageopacity="0"
     inkscape:pageshadow="2"
     inkscape:window-width="1854"
     inkscape:window-height="1051"
     id="namedview36"
     showgrid="false"
     inkscape:zoom="0.25671406"
     inkscape:cx="668.67033"
     inkscape:cy="155.5"
     inkscape:window-x="0"
     inkscape:window-y="0"
     inkscape:window-maximized="1"
     inkscape:current-layer="logo_art" />
  <defs
     id="defs4">
    <style
       id="style2">.cls-1{fill:#8c929d;}.cls-2{fill:#fc6d26;}.cls-3{fill:#e24329;}.cls-4{fill:#fca326;}</style>
  </defs>
  <title
     id="title6">gitlab-logo-gray-rgb</title>
  <g
     id="g44"
     transform="translate(-124.04044,-123.99491)">
    <path
       id="path46"
       class="cls-2"
       d="M 461,301.81 442.09,243.69 404.67,128.41 a 6.47,6.47 0 0 0 -12.27,0 L 355,243.62 H 230.66 L 193.24,128.41 a 6.47,6.47 0 0 0 -12.27,0 l -37.35,115.21 -18.92,58.19 a 12.89,12.89 0 0 0 4.66,14.39 L 292.82,435 456.28,316.2 A 12.9,12.9 0 0 0 461,301.81"
       inkscape:connector-curvature="0"
       style="fill:#fc6d26" />
  </g>
  <g
     id="g48"
     transform="translate(-124.04044,-123.99491)">
    <path
       id="path50"
       class="cls-3"
       d="m 292.86,434.89 v 0 L 355,243.61 H 230.7 Z"
       inkscape:connector-curvature="0"
       style="fill:#e24329" />
  </g>
  <g
     id="g56"
     transform="translate(-124.04044,-123.99491)">
    <path
       id="path58"
       class="cls-2"
       d="M 292.82,434.9 230.66,243.61 h -87 z"
       inkscape:connector-curvature="0"
       style="fill:#fc6d26" />
  </g>
  <g
     id="g64"
     transform="translate(-124.04044,-123.99491)">
    <path
       id="path66"
       class="cls-4"
       d="m 143.59,243.68 v 0 l -18.92,58.12 a 12.89,12.89 0 0 0 4.66,14.39 L 292.79,435 Z"
       inkscape:connector-curvature="0"
       style="fill:#fca326" />
  </g>
  <g
     id="g72"
     transform="translate(-124.04044,-123.99491)">
    <path
       id="path74"
       class="cls-3"
       d="m 143.61,243.68 h 87.11 L 193.23,128.47 a 6.47,6.47 0 0 0 -12.27,0 z"
       inkscape:connector-curvature="0"
       style="fill:#e24329" />
  </g>
  <g
     id="g76"
     transform="translate(-124.04044,-123.99491)">
    <path
       id="path78"
       class="cls-2"
       d="M 292.86,434.9 355,243.61 h 87.1 z"
       inkscape:connector-curvature="0"
       style="fill:#fc6d26" />
  </g>
  <g
     id="g80"
     transform="translate(-124.04044,-123.99491)">
    <path
       id="path82"
       class="cls-4"
       d="m 442.07,243.68 v 0 L 461,301.8 a 12.89,12.89 0 0 1 -4.66,14.39 l -163.47,118.7 z"
       inkscape:connector-curvature="0"
       style="fill:#fca326" />
  </g>
  <g
     id="g84"
     transform="translate(-124.04044,-123.99491)">
    <path
       id="path86"
       class="cls-3"
       d="M 442.12,243.68 H 355 l 37.42,-115.21 a 6.47,6.47 0 0 1 12.27,0 l 37.42,115.21 z"
       inkscape:connector-curvature="0"
       style="fill:#e24329" />
  </g>
</svg>
